<svg width="78" height="25" viewBox="0 0 78 25" fill="none" xmlns="http://www.w3.org/2000/svg">
<path d="M3.79934 9.24C3.52734 9.336 3.03934 9.464 2.33534 9.624C1.63134 9.768 1.07934 9.864 0.679344 9.912L0.415344 8.232C1.27934 8.056 2.17534 7.744 3.10334 7.296C4.04734 6.832 4.81534 6.352 5.40734 5.856H5.43134L7.32734 6.12V19.32L10.0633 19.584V21H0.919344V19.584L3.79934 19.344V9.24ZM18.1755 21.24C16.1275 21.24 14.5595 20.56 13.4715 19.2C12.3995 17.824 11.8635 15.96 11.8635 13.608C11.8635 11.944 12.1755 10.536 12.7995 9.384C13.4235 8.216 14.2475 7.344 15.2715 6.768C16.3115 6.176 17.4635 5.88 18.7275 5.88C20.7915 5.88 22.3435 6.536 23.3835 7.848C24.4235 9.144 24.9435 10.984 24.9435 13.368C24.9435 15.016 24.6395 16.44 24.0315 17.64C23.4395 18.824 22.6315 19.72 21.6075 20.328C20.5835 20.936 19.4395 21.24 18.1755 21.24ZM18.4155 19.8C19.4235 19.8 20.1595 19.288 20.6235 18.264C21.1035 17.224 21.3435 15.68 21.3435 13.632C21.3435 11.456 21.1195 9.864 20.6715 8.856C20.2395 7.832 19.4955 7.32 18.4395 7.32C16.4555 7.32 15.4635 9.328 15.4635 13.344C15.4635 15.488 15.6955 17.104 16.1595 18.192C16.6395 19.264 17.3915 19.8 18.4155 19.8ZM33.949 21.24C31.901 21.24 30.333 20.56 29.245 19.2C28.173 17.824 27.637 15.96 27.637 13.608C27.637 11.944 27.949 10.536 28.573 9.384C29.197 8.216 30.021 7.344 31.045 6.768C32.085 6.176 33.237 5.88 34.501 5.88C36.565 5.88 38.117 6.536 39.157 7.848C40.197 9.144 40.717 10.984 40.717 13.368C40.717 15.016 40.413 16.44 39.805 17.64C39.213 18.824 38.405 19.72 37.381 20.328C36.357 20.936 35.213 21.24 33.949 21.24ZM34.189 19.8C35.197 19.8 35.933 19.288 36.397 18.264C36.877 17.224 37.117 15.68 37.117 13.632C37.117 11.456 36.893 9.864 36.445 8.856C36.013 7.832 35.269 7.32 34.213 7.32C32.229 7.32 31.237 9.328 31.237 13.344C31.237 15.488 31.469 17.104 31.933 18.192C32.413 19.264 33.165 19.8 34.189 19.8ZM49.7224 21.24C47.6744 21.24 46.1064 20.56 45.0184 19.2C43.9464 17.824 43.4104 15.96 43.4104 13.608C43.4104 11.944 43.7224 10.536 44.3464 9.384C44.9704 8.216 45.7944 7.344 46.8184 6.768C47.8584 6.176 49.0104 5.88 50.2744 5.88C52.3384 5.88 53.8904 6.536 54.9304 7.848C55.9704 9.144 56.4904 10.984 56.4904 13.368C56.4904 15.016 56.1864 16.44 55.5784 17.64C54.9864 18.824 54.1784 19.72 53.1544 20.328C52.1304 20.936 50.9864 21.24 49.7224 21.24ZM49.9624 19.8C50.9704 19.8 51.7064 19.288 52.1704 18.264C52.6504 17.224 52.8904 15.68 52.8904 13.632C52.8904 11.456 52.6664 9.864 52.2184 8.856C51.7864 7.832 51.0424 7.32 49.9864 7.32C48.0024 7.32 47.0104 9.328 47.0104 13.344C47.0104 15.488 47.2424 17.104 47.7064 18.192C48.1864 19.264 48.9384 19.8 49.9624 19.8ZM77.6952 16.128C77.6952 17.44 77.2552 18.568 76.3752 19.512C75.4952 20.456 74.1672 21.016 72.3912 21.192L72.3672 24.024H70.4472L70.4712 21.24C69.4952 21.176 68.6232 21.048 67.8552 20.856C67.0872 20.664 66.3192 20.448 65.5512 20.208L65.7432 15.936H67.7112L68.2872 18.888C68.8792 19.448 69.8232 19.728 71.1192 19.728C73.1992 19.728 74.2392 18.832 74.2392 17.04C74.2392 16.496 74.0632 16.008 73.7112 15.576C73.3592 15.128 72.9032 14.736 72.3432 14.4C71.7832 14.048 70.9992 13.616 69.9912 13.104C69.0632 12.624 68.2952 12.152 67.6872 11.688C67.0952 11.224 66.6152 10.656 66.2472 9.984C65.8792 9.296 65.6952 8.48 65.6952 7.536C65.6952 6.368 66.1352 5.368 67.0152 4.536C67.9112 3.688 69.1112 3.176 70.6152 3V0.36H72.5832V2.976C73.3832 3.024 74.0872 3.128 74.6952 3.288C75.3192 3.448 75.9672 3.632 76.6392 3.84L76.5192 7.776H74.5992L74.0472 5.064C73.8552 4.888 73.5752 4.736 73.2072 4.608C72.8392 4.48 72.4312 4.416 71.9832 4.416C71.0872 4.416 70.3672 4.632 69.8232 5.064C69.2792 5.48 69.0072 6.064 69.0072 6.816C69.0072 7.424 69.1832 7.952 69.5352 8.4C69.9032 8.848 70.3192 9.216 70.7832 9.504C71.2632 9.792 71.9912 10.2 72.9672 10.728C74.0712 11.336 74.9272 11.864 75.5352 12.312C76.1592 12.744 76.6712 13.272 77.0712 13.896C77.4872 14.52 77.6952 15.264 77.6952 16.128Z" fill="#BDAE82"/>
</svg>
