<svg width="65" height="25" viewBox="0 0 65 25" fill="none" xmlns="http://www.w3.org/2000/svg">
<path d="M0.7225 23.184C1.3305 23.216 1.7945 23.232 2.1145 23.232C3.2185 23.232 4.2185 23.008 5.1145 22.56C6.0265 22.112 6.7465 21.504 7.2745 20.736C7.8025 19.952 8.0665 19.088 8.0665 18.144C8.0665 16.944 7.7785 16.08 7.2025 15.552C6.6265 15.024 5.7945 14.76 4.7065 14.76C4.1785 14.76 3.5945 14.832 2.9545 14.976C2.3305 15.12 1.8105 15.288 1.3945 15.48L0.6025 14.928L1.7545 6.072H9.1705L9.4105 5.616H11.0665L10.5625 8.616H3.9865L3.0025 13.608C3.4665 13.368 4.0185 13.16 4.6585 12.984C5.3145 12.792 6.0105 12.696 6.7465 12.696C8.3785 12.696 9.6265 13.12 10.4905 13.968C11.3705 14.816 11.8105 16.016 11.8105 17.568C11.8105 18.944 11.4025 20.184 10.5865 21.288C9.7865 22.408 8.6665 23.28 7.2265 23.904C5.8025 24.544 4.1945 24.864 2.4025 24.864C1.7945 24.864 1.2345 24.808 0.7225 24.696V23.184ZM20.9138 21.24C18.8658 21.24 17.2978 20.56 16.2098 19.2C15.1378 17.824 14.6018 15.96 14.6018 13.608C14.6018 11.944 14.9138 10.536 15.5378 9.384C16.1618 8.216 16.9858 7.344 18.0098 6.768C19.0498 6.176 20.2018 5.88 21.4658 5.88C23.5298 5.88 25.0818 6.536 26.1218 7.848C27.1618 9.144 27.6818 10.984 27.6818 13.368C27.6818 15.016 27.3778 16.44 26.7698 17.64C26.1778 18.824 25.3698 19.72 24.3458 20.328C23.3218 20.936 22.1778 21.24 20.9138 21.24ZM21.1538 19.8C22.1618 19.8 22.8978 19.288 23.3618 18.264C23.8418 17.224 24.0818 15.68 24.0818 13.632C24.0818 11.456 23.8578 9.864 23.4098 8.856C22.9778 7.832 22.2338 7.32 21.1778 7.32C19.1938 7.32 18.2018 9.328 18.2018 13.344C18.2018 15.488 18.4338 17.104 18.8978 18.192C19.3778 19.264 20.1298 19.8 21.1538 19.8ZM36.6873 21.24C34.6393 21.24 33.0713 20.56 31.9833 19.2C30.9113 17.824 30.3753 15.96 30.3753 13.608C30.3753 11.944 30.6873 10.536 31.3113 9.384C31.9353 8.216 32.7593 7.344 33.7833 6.768C34.8233 6.176 35.9753 5.88 37.2393 5.88C39.3033 5.88 40.8553 6.536 41.8953 7.848C42.9353 9.144 43.4553 10.984 43.4553 13.368C43.4553 15.016 43.1513 16.44 42.5433 17.64C41.9513 18.824 41.1433 19.72 40.1193 20.328C39.0953 20.936 37.9513 21.24 36.6873 21.24ZM36.9273 19.8C37.9353 19.8 38.6713 19.288 39.1353 18.264C39.6153 17.224 39.8553 15.68 39.8553 13.632C39.8553 11.456 39.6313 9.864 39.1833 8.856C38.7513 7.832 38.0073 7.32 36.9513 7.32C34.9673 7.32 33.9753 9.328 33.9753 13.344C33.9753 15.488 34.2073 17.104 34.6713 18.192C35.1513 19.264 35.9033 19.8 36.9273 19.8ZM64.66 16.128C64.66 17.44 64.22 18.568 63.34 19.512C62.46 20.456 61.132 21.016 59.356 21.192L59.332 24.024H57.412L57.436 21.24C56.46 21.176 55.588 21.048 54.82 20.856C54.052 20.664 53.284 20.448 52.516 20.208L52.708 15.936H54.676L55.252 18.888C55.844 19.448 56.788 19.728 58.084 19.728C60.164 19.728 61.204 18.832 61.204 17.04C61.204 16.496 61.028 16.008 60.676 15.576C60.324 15.128 59.868 14.736 59.308 14.4C58.748 14.048 57.964 13.616 56.956 13.104C56.028 12.624 55.26 12.152 54.652 11.688C54.06 11.224 53.58 10.656 53.212 9.984C52.844 9.296 52.66 8.48 52.66 7.536C52.66 6.368 53.1 5.368 53.98 4.536C54.876 3.688 56.076 3.176 57.58 3V0.36H59.548V2.976C60.348 3.024 61.052 3.128 61.66 3.288C62.284 3.448 62.932 3.632 63.604 3.84L63.484 7.776H61.564L61.012 5.064C60.82 4.888 60.54 4.736 60.172 4.608C59.804 4.48 59.396 4.416 58.948 4.416C58.052 4.416 57.332 4.632 56.788 5.064C56.244 5.48 55.972 6.064 55.972 6.816C55.972 7.424 56.148 7.952 56.5 8.4C56.868 8.848 57.284 9.216 57.748 9.504C58.228 9.792 58.956 10.2 59.932 10.728C61.036 11.336 61.892 11.864 62.5 12.312C63.124 12.744 63.636 13.272 64.036 13.896C64.452 14.52 64.66 15.264 64.66 16.128Z" fill="#BDAE82"/>
</svg>
