<svg width="65" height="26" viewBox="0 0 65 26" fill="none" xmlns="http://www.w3.org/2000/svg">
<path d="M2.83716 24.36C4.45316 21.032 6.46916 16.384 8.88516 10.416L9.82116 8.16L3.46116 8.256L2.23716 11.784L0.221156 11.4L0.821156 6.072H12.2692L12.8932 6.864L9.10116 17.736L6.43716 25.32L2.83716 24.36ZM21.1912 21.24C19.1432 21.24 17.5752 20.56 16.4872 19.2C15.4152 17.824 14.8792 15.96 14.8792 13.608C14.8792 11.944 15.1912 10.536 15.8152 9.384C16.4392 8.216 17.2632 7.344 18.2872 6.768C19.3272 6.176 20.4792 5.88 21.7432 5.88C23.8072 5.88 25.3592 6.536 26.3992 7.848C27.4392 9.144 27.9592 10.984 27.9592 13.368C27.9592 15.016 27.6552 16.44 27.0472 17.64C26.4552 18.824 25.6472 19.72 24.6232 20.328C23.5992 20.936 22.4552 21.24 21.1912 21.24ZM21.4312 19.8C22.4392 19.8 23.1752 19.288 23.6392 18.264C24.1192 17.224 24.3592 15.68 24.3592 13.632C24.3592 11.456 24.1352 9.864 23.6872 8.856C23.2552 7.832 22.5112 7.32 21.4552 7.32C19.4712 7.32 18.4792 9.328 18.4792 13.344C18.4792 15.488 18.7112 17.104 19.1752 18.192C19.6552 19.264 20.4072 19.8 21.4312 19.8ZM36.9646 21.24C34.9166 21.24 33.3486 20.56 32.2606 19.2C31.1886 17.824 30.6526 15.96 30.6526 13.608C30.6526 11.944 30.9646 10.536 31.5886 9.384C32.2126 8.216 33.0366 7.344 34.0606 6.768C35.1006 6.176 36.2526 5.88 37.5166 5.88C39.5806 5.88 41.1326 6.536 42.1726 7.848C43.2126 9.144 43.7326 10.984 43.7326 13.368C43.7326 15.016 43.4286 16.44 42.8206 17.64C42.2286 18.824 41.4206 19.72 40.3966 20.328C39.3726 20.936 38.2286 21.24 36.9646 21.24ZM37.2046 19.8C38.2126 19.8 38.9486 19.288 39.4126 18.264C39.8926 17.224 40.1326 15.68 40.1326 13.632C40.1326 11.456 39.9086 9.864 39.4606 8.856C39.0286 7.832 38.2846 7.32 37.2286 7.32C35.2446 7.32 34.2526 9.328 34.2526 13.344C34.2526 15.488 34.4846 17.104 34.9486 18.192C35.4286 19.264 36.1806 19.8 37.2046 19.8ZM64.9373 16.128C64.9373 17.44 64.4973 18.568 63.6173 19.512C62.7373 20.456 61.4093 21.016 59.6333 21.192L59.6093 24.024H57.6893L57.7133 21.24C56.7373 21.176 55.8653 21.048 55.0973 20.856C54.3293 20.664 53.5613 20.448 52.7933 20.208L52.9853 15.936H54.9533L55.5293 18.888C56.1213 19.448 57.0653 19.728 58.3613 19.728C60.4413 19.728 61.4813 18.832 61.4813 17.04C61.4813 16.496 61.3053 16.008 60.9533 15.576C60.6013 15.128 60.1453 14.736 59.5853 14.4C59.0253 14.048 58.2413 13.616 57.2333 13.104C56.3053 12.624 55.5373 12.152 54.9293 11.688C54.3373 11.224 53.8573 10.656 53.4893 9.984C53.1213 9.296 52.9373 8.48 52.9373 7.536C52.9373 6.368 53.3773 5.368 54.2573 4.536C55.1533 3.688 56.3533 3.176 57.8573 3V0.36H59.8253V2.976C60.6253 3.024 61.3293 3.128 61.9373 3.288C62.5613 3.448 63.2093 3.632 63.8813 3.84L63.7613 7.776H61.8413L61.2893 5.064C61.0973 4.888 60.8173 4.736 60.4493 4.608C60.0813 4.48 59.6733 4.416 59.2253 4.416C58.3293 4.416 57.6093 4.632 57.0653 5.064C56.5213 5.48 56.2493 6.064 56.2493 6.816C56.2493 7.424 56.4253 7.952 56.7773 8.4C57.1453 8.848 57.5613 9.216 58.0253 9.504C58.5053 9.792 59.2333 10.2 60.2093 10.728C61.3133 11.336 62.1693 11.864 62.7773 12.312C63.4013 12.744 63.9133 13.272 64.3133 13.896C64.7293 14.52 64.9373 15.264 64.9373 16.128Z" fill="#BDAE82"/>
</svg>
